<?xml version="1.0" encoding="utf-8"?>
<!DOCTYPE svg PUBLIC "-//W3C//DTD SVG 1.0//EN" "http://www.w3.org/TR/2001/REC-SVG-20010904/DTD/svg10.dtd">
<svg version="1.0" xmlns="http://www.w3.org/2000/svg" width="455px" height="770px" viewBox="1235 230 455 770" preserveAspectRatio="xMidYMid meet">
 <g fill="#000000">
  <path d="M1420.14 989.58 c-71.46 -8.03 -124.05 -26.70 -150.95 -53.39 -18.67 -18.67 -19.07 -21.08 -18.27 -94.54 0.60 -57.41 0.80 -60.22 5.02 -68.25 6.82 -12.65 23.28 -27.50 39.74 -35.93 l14.65 -7.63 -16.26 -9.23 c-17.46 -9.84 -32.92 -23.28 -38.74 -34.32 -3.41 -6.22 -3.81 -12.85 -4.42 -68.65 -0.60 -54.20 -0.20 -63.23 2.81 -72.26 4.62 -14.25 21.08 -30.31 41.35 -40.55 8.63 -4.42 15.66 -8.43 15.46 -9.03 0 -0.60 -7.03 -4.42 -15.86 -8.63 -19.87 -9.43 -34.32 -22.28 -39.94 -35.53 -4.22 -9.84 -4.42 -12.24 -3.81 -72.86 0.60 -71.46 0.40 -70.25 18.07 -87.52 11.44 -11.24 30.71 -21.28 58.21 -30.11 96.55 -30.91 223.81 -26.30 302.29 10.84 22.48 10.64 42.75 29.11 46.37 42.35 1.41 4.82 2.21 30.91 2.21 69.25 0 58.81 -0.20 61.62 -4.01 65.04 -2.21 2.01 -13.25 5.62 -25.49 8.23 -22.08 4.82 -50.78 17.06 -57.41 24.49 -3.21 3.61 -2.81 4.01 13.05 9.23 23.49 8.03 38.74 16.46 53.19 29.91 21.28 19.87 20.88 18.07 20.27 94.94 l-0.60 65.84 -5.02 2.41 c-2.81 1.41 -13.65 4.22 -24.09 6.42 -10.44 2.21 -24.29 6.02 -30.51 8.43 -12.65 4.62 -30.71 16.06 -30.11 18.87 0 1 7.83 4.22 16.86 7.23 32.72 10.44 60.62 30.11 69.85 49.18 4.01 8.43 4.22 11.64 4.22 74.47 0 51.59 -0.60 66.24 -2.61 68.25 -1.41 1.41 -12.04 4.42 -23.69 6.82 -24.09 4.82 -46.37 13.25 -59.42 22.28 -10.44 7.03 -20.67 20.27 -22.28 28.50 -1.61 8.03 -7.03 10.64 -26.70 13.45 -21.68 3.01 -102.37 4.22 -123.45 2.01z m173.63 -73.06 c14.85 -7.03 48.98 -17.26 57.81 -17.26 l4.42 0 0 -43.16 c0 -34.73 -0.60 -43.16 -2.61 -43.16 -5.62 0 -28.90 8.63 -42.35 15.66 -24.49 12.85 -40.35 33.52 -48.38 63.63 -3.21 12.24 -4.62 38.94 -2.01 42.96 0.80 1.41 4.42 -0.20 9.84 -4.62 4.62 -3.81 15.05 -10.24 23.28 -14.05z m-79.29 -61.42 c30.71 -3.41 30.51 -3.41 36.13 -13.45 2.81 -5.02 5.02 -9.43 5.02 -9.63 0 -0.40 -6.22 1.61 -14.05 4.22 -45.56 15.86 -125.86 13.25 -162.79 -5.22 -21.88 -11.04 -27.90 -19.67 -27.90 -39.54 0 -14.85 4.62 -23.69 17.06 -32.12 9.23 -6.42 9.23 -6.62 3.81 -6.82 -3.21 0 -12.04 -1.61 -19.47 -3.61 l-13.65 -3.61 -14.45 6.42 c-21.08 9.03 -37.13 20.47 -43.76 30.71 -5.22 8.23 -5.42 9.43 -2.81 14.45 4.01 7.83 18.87 20.27 32.52 27.50 26.50 14.05 74.87 26.09 125.05 31.31 15.46 1.61 62.23 1.20 79.29 -0.60z m-2.81 -40.95 c15.26 -4.01 31.92 -11.64 36.93 -17.26 3.41 -3.81 3.41 -4.22 -0.20 -8.23 -5.22 -5.82 -23.69 -14.85 -39.14 -19.07 -9.84 -2.81 -20.07 -3.61 -43.96 -3.61 -29.51 0 -32.12 0.40 -50.18 6.42 -20.07 6.62 -34.12 14.65 -34.12 19.47 0 4.01 11.24 12.04 23.08 16.66 29.91 11.64 74.27 14.05 107.59 5.62z m103.37 -21.28 c6.82 -2.21 17.86 -5.22 24.89 -6.62 l12.45 -2.61 -9.43 -9.23 c-10.24 -10.04 -25.49 -19.07 -45.97 -26.70 -16.46 -6.22 -18.87 -6.22 -21.28 -0.20 -1.20 3.61 -3.81 5.22 -10.04 6.22 l-8.23 1.41 7.83 5.82 c11.44 8.43 15.05 17.26 14.05 34.73 l-0.60 14.25 12.04 -6.42 c6.62 -3.61 17.46 -8.43 24.29 -10.64z m-9.84 -116.02 c8.63 -3.41 23.49 -7.63 33.32 -9.43 l17.46 -3.61 0 -42.96 0 -43.16 -7.43 1.41 c-4.22 0.60 -9.63 2.61 -12.04 4.22 -2.41 1.61 -6.02 2.81 -8.03 2.81 -7.43 0 -29.11 12.24 -38.54 21.68 -11.44 11.44 -18.67 24.69 -22.88 41.75 -4.62 18.47 -5.62 28.50 -4.22 40.95 l1.20 11.44 12.65 -9.43 c7.03 -5.22 19.87 -12.24 28.50 -15.66z m-84.10 -58.81 c11.24 -1 21.68 -2.41 23.08 -3.01 1.41 -0.40 4.62 -5.22 7.43 -10.44 l5.22 -9.63 -11.44 4.62 c-23.08 9.23 -36.73 11.44 -76.08 11.44 -40.95 0.20 -55.20 -1.81 -81.70 -11.24 -19.67 -7.03 -33.52 -18.27 -36.73 -29.31 -4.82 -18.07 0.40 -34.73 13.85 -43.76 4.62 -3.01 8.23 -6.02 8.23 -6.62 0 -0.80 -7.43 -2.81 -16.46 -4.62 l-16.46 -3.41 -14.45 5.82 c-23.69 9.43 -41.75 22.28 -47.97 34.32 -2.41 4.62 -2.21 6.02 1 11.44 12.24 19.87 63.43 41.55 122.24 51.59 39.14 6.62 72.66 7.43 120.24 2.81z m-14.65 -38.14 c21.28 -4.62 41.75 -15.05 42.75 -21.48 1.20 -8.23 -25.69 -21.28 -54.60 -26.30 -36.93 -6.62 -93.34 3.81 -111.20 20.27 l-4.42 4.42 4.42 4.82 c10.04 10.84 39.14 19.87 71.86 22.28 22.28 1.61 27.10 1.20 51.19 -4.01z m111.20 -23.69 c6.82 -2.21 17.06 -4.62 22.48 -5.42 l9.84 -1.41 -4.01 -5.62 c-6.02 -8.03 -25.69 -20.67 -43.56 -27.50 -24.69 -9.23 -24.09 -9.23 -25.49 -3.81 -1.20 5.22 -6.02 7.43 -16.26 7.43 l-6.02 0 6.02 3.81 c8.03 4.82 14.25 12.04 16.86 18.87 2.81 7.03 2.81 21.48 0.40 28.30 -2.01 4.82 -1.61 4.82 12.45 -2.81 8.03 -4.22 20.27 -9.63 27.30 -11.84z m-43.56 -93.34 c12.04 -10.44 34.32 -20.47 59.01 -26.90 l21.88 -5.82 0.60 -42.55 0.40 -42.75 -6.42 1.41 c-20.27 4.01 -37.54 11.64 -53.19 23.28 -18.67 14.05 -28.90 33.92 -32.52 63.83 -1.61 14.05 -1 36.33 1.20 36.33 0.60 0 4.62 -3.01 9.03 -6.82z m-60.42 -77.48 c30.91 -3.01 31.11 -3.21 36.53 -13.05 2.81 -4.82 4.01 -8.43 2.61 -8.03 -28.30 10.04 -38.74 11.64 -78.48 12.45 -31.51 0.80 -43.76 0.40 -57.41 -2.21 -49.38 -9.23 -70.25 -25.49 -67.44 -52.79 0.60 -6.02 2.61 -13.25 4.42 -15.86 4.62 -7.03 17.86 -16.06 30.71 -20.88 23.08 -8.63 37.34 -10.64 82.70 -10.64 38.14 -0.20 44.96 0.40 58.61 4.01 22.88 6.42 34.32 12.04 42.96 20.88 l7.83 8.03 0 17.46 0 17.46 17.06 -8.63 c9.43 -4.82 25.49 -10.64 35.93 -13.05 l18.67 -4.62 -9.43 -8.43 c-37.74 -33.12 -139.91 -50.98 -228.83 -39.74 -26.70 3.41 -66.64 12.24 -70.05 15.46 -1.20 1 -3.81 1.81 -6.02 1.81 -7.23 0 -37.74 16.26 -47.37 25.29 -13.25 12.24 -13.65 15.26 -3.41 26.30 31.71 34.32 141.31 57.61 230.43 48.78z m-0.20 -40.15 c15.26 -4.22 29.31 -11.24 33.92 -16.86 5.22 -6.42 -12.65 -17.06 -39.34 -23.49 -15.66 -3.81 -21.08 -4.01 -48.58 -2.81 -40.15 1.81 -65.64 8.43 -76.48 20.07 l-4.42 4.62 7.83 5.22 c27.10 18.07 87.72 24.29 127.06 13.25z"/>
 </g>
 <g fill="#fbfbfb">
  <path d="M1556.84 952.05 c-0.60 -2.01 -2.01 -10.24 -3.41 -18.47 -5.62 -36.73 11.04 -82.90 36.33 -101.57 12.65 -9.23 35.53 -19.67 52.39 -23.89 21.88 -5.42 19.87 -10.24 19.87 46.97 l0 50.18 -4.42 0 c-2.61 0 -13.25 2.21 -23.69 5.02 -33.12 8.83 -61.02 24.49 -69.65 39.14 -4.01 6.82 -5.82 7.43 -7.43 2.61z"/>
  <path d="M1429.17 861.72 c-50.18 -5.22 -98.56 -17.26 -125.05 -31.31 -13.85 -7.23 -28.50 -19.67 -32.52 -27.70 -9.84 -18.87 7.63 -40.15 47.17 -57.41 17.66 -7.83 18.47 -7.83 39.34 -2.81 8.63 2.21 22.68 5.02 30.91 6.42 13.25 2.01 14.45 2.61 10.04 4.42 -35.73 14.45 -46.57 27.10 -40.35 47.57 10.44 34.73 109.80 51.39 175.84 29.91 47.37 -15.66 52.59 -53.39 10.04 -72.26 -13.05 -5.82 -10.84 -7.63 13.65 -10.84 8.43 -1.20 9.84 -2.01 12.45 -8.23 1.61 -3.81 3.21 -6.82 3.81 -6.82 4.22 0 40.75 13.65 51.39 19.27 15.46 8.03 30.71 22.08 33.72 30.91 2.01 5.62 1.81 6.02 -3.21 7.03 -50.98 10.44 -83.50 28.90 -99.16 56.40 -6.42 11.64 -5.62 11.24 -36.73 14.85 -16.86 1.81 -75.67 2.21 -91.33 0.60z"/>
  <path d="M1558.24 709.17 c-0.80 -5.42 -1.61 -19.07 -1.41 -30.71 0.20 -34.32 8.83 -58.41 27.10 -76.68 9.43 -9.43 31.11 -21.68 38.54 -21.68 2.01 0 5.62 -1.20 8.03 -2.81 4.22 -2.61 22.28 -7.23 28.50 -7.23 2.61 0 3.01 7.63 3.01 49.98 l0 49.78 -17.46 3.61 c-33.72 6.62 -64.83 22.28 -77.08 38.94 -2.61 3.41 -5.22 6.22 -6.02 6.22 -0.80 0 -2.21 -4.22 -3.21 -9.43z"/>
  <path d="M1436 626.27 c-89.32 -7.03 -167.41 -39.14 -167.41 -68.85 0 -13.25 14.65 -28.50 38.94 -40.15 24.89 -12.24 29.91 -12.85 54.80 -8.03 12.04 2.41 25.69 5.02 30.71 5.82 l9.03 1.41 -10.44 4.62 c-36.93 16.26 -46.17 38.94 -23.69 58.61 35.93 31.71 143.32 34.93 187.08 5.82 12.24 -8.23 19.67 -22.08 17.86 -32.72 -2.01 -9.84 -13.05 -21.28 -27.10 -28.10 -6.62 -3.01 -11.64 -6.22 -11.24 -7.03 0.60 -0.60 6.62 -1.81 13.45 -2.61 19.07 -2.21 21.28 -3.01 23.49 -9.43 1 -3.21 3.01 -5.82 4.42 -5.82 3.81 0 38.14 12.04 46.97 16.46 12.85 6.62 26.09 17.06 31.71 25.29 6.62 9.43 6.82 12.04 1 13.25 -39.94 7.83 -65.84 19.27 -83.50 36.93 -6.22 6.22 -13.25 15.26 -15.26 19.87 -2.01 4.82 -5.22 9.03 -7.03 9.63 -14.25 4.22 -82.90 7.43 -113.81 5.02z"/>
  <path d="M1560.85 485.96 c-0.60 -0.80 -2.01 -9.23 -3.21 -19.07 -2.81 -20.67 -0.40 -47.57 6.02 -66.44 10.24 -30.31 38.54 -51.39 80.89 -60.42 7.83 -1.61 14.85 -2.21 15.86 -1.20 1 1 1.41 23.28 1.20 49.58 l-0.60 47.77 -21.88 5.82 c-30.31 7.83 -49.38 17.46 -64.83 32.92 -7.03 6.82 -13.05 11.84 -13.45 11.04z"/>
  <path d="M1412.51 390.41 c-61.42 -7.43 -116.02 -26.90 -135.69 -48.17 -8.23 -8.83 -8.63 -10.04 -7.63 -18.47 0.80 -7.23 2.61 -10.84 9.63 -17.86 9.03 -9.23 41.35 -26.90 49.18 -26.90 2.21 0 4.82 -0.80 6.02 -1.81 3.21 -3.21 43.36 -12.04 70.05 -15.46 31.51 -4.01 90.33 -4.62 118.43 -1 61.62 7.83 104.18 22.88 126.06 44.56 12.85 13.05 14.45 17.86 5.82 17.86 -10.64 0 -37.54 8.03 -53.79 16.06 -19.67 9.63 -35.13 23.08 -43.16 37.34 -4.42 7.63 -7.63 10.84 -11.44 11.64 -26.70 5.42 -96.95 6.62 -133.48 2.21z m114.82 -26.30 c19.67 -5.42 21.88 -6.62 32.92 -17.26 l12.04 -11.24 -1 -11.24 c-0.80 -9.84 -2.01 -12.45 -8.63 -19.27 -19.07 -19.47 -67.85 -29.31 -121.44 -24.29 -36.13 3.21 -59.82 10.84 -74.87 24.09 -20.47 18.27 -9.43 43.16 24.69 55.60 23.28 8.43 41.95 10.84 79.29 10.24 32.92 -0.60 37.94 -1.20 57.01 -6.62z"/>
  <path d="M1410.71 243.48 c2.41 -0.40 6.02 -0.40 8.03 0 1.81 0.60 -0.20 1 -4.62 0.80 -4.42 0 -6.02 -0.40 -3.41 -0.80z"/>
  <path d="M1446.84 241.47 c11.44 -0.40 29.51 -0.40 40.15 0 10.64 0.20 1.41 0.60 -20.67 0.60 -22.08 0 -30.91 -0.40 -19.47 -0.60z"/>
 </g>
 <g fill="#f3c733">
  <path d="M1447.24 824.99 c-62.63 -5.82 -93.74 -30.51 -61.62 -48.98 4.62 -2.61 16.06 -7.43 25.49 -10.44 16.06 -5.22 19.07 -5.62 54.20 -5.62 29.91 -0.20 39.74 0.60 49.98 3.41 25.89 7.23 44.36 19.87 44.36 30.11 0 2.21 -3.21 6.82 -7.03 10.64 -16.46 15.46 -63.23 24.69 -105.38 20.88z"/>
 </g>
 <g fill="#4687b7">
  <path d="M1449.25 590.14 c-34.12 -2.81 -59.62 -10.84 -71.66 -22.68 -3.61 -3.41 -6.62 -7.83 -6.62 -9.63 0 -11.24 22.28 -23.69 53.79 -30.31 16.06 -3.21 24.69 -3.81 48.58 -3.01 31.92 1 45.77 4.01 65.84 13.65 24.29 11.84 25.49 25.09 3.41 37.13 -22.08 12.24 -57.41 17.86 -93.34 14.85z"/>
 </g>
 <g fill="#d72b2e">
  <path d="M1427.37 354.48 c-29.11 -5.62 -50.58 -15.26 -54.80 -24.49 -3.21 -6.82 2.61 -14.25 16.46 -21.28 17.86 -8.83 31.71 -11.44 70.86 -12.85 32.92 -1.20 38.34 -0.80 54.20 3.01 9.63 2.21 20.88 5.82 25.09 8.03 9.23 4.82 18.47 13.65 18.47 18.07 0 9.43 -14.65 19.67 -38.14 26.30 -19.67 5.62 -69.85 7.43 -92.13 3.21z"/>
 </g>
</svg>
